<svg width="64" height="64" viewBox="0 0 64 64" fill="none" xmlns="http://www.w3.org/2000/svg">
<rect width="64" height="64" rx="12" fill="#308CEF"/>
<path d="M37.67 21.317C41.3406 24.3611 44.2808 28.7393 44.754 33.582C44.9908 38.1233 44.4934 42.4003 41.72 46.157C41.539 46.4034 41.358 46.6498 41.1716 46.9037C38.3873 50.4919 34.5934 53.0381 30.11 53.987C29.0268 54.0873 27.957 54.0886 26.87 54.0714C26.4586 54.0727 26.4586 54.0727 26.0389 54.074C21.8175 54.0442 18.3921 52.7082 14.99 50.207C14.795 49.9779 14.6 49.7488 14.399 49.5128C13.4256 48.6717 12.8913 48.6813 11.6182 48.6661C11.3334 48.66 11.3334 48.66 11.0428 48.6537C10.4403 48.6422 9.83821 48.6398 9.23562 48.6376C8.82552 48.6314 8.41542 48.6245 8.00533 48.617C7.00356 48.6001 6.00191 48.5913 5 48.587C5.3281 47.5102 5.71133 46.6053 6.31098 45.6539C6.45663 45.4143 6.60229 45.1746 6.75236 44.9277C7.05734 44.4319 7.36601 43.9382 7.67838 43.447C8.53041 42.029 8.95341 41.1214 8.63004 39.479C7.70743 34.7748 8.78457 29.9572 11.21 25.907C13.9542 21.9359 18.2113 18.9289 22.9803 17.9135C28.2877 17.2988 33.2434 18.1697 37.67 21.317Z" fill="#CCE3FC"/>
<path d="M44.15 11.3269C44.4256 11.4446 44.7013 11.5622 44.9853 11.6834C49.614 13.8224 52.6528 17.4361 54.718 22.0194C55.4351 24.0208 55.5669 25.7863 55.5406 27.8982C55.5404 28.2939 55.5404 28.2939 55.5401 28.6976C55.5325 29.9637 55.4729 31.1288 55.2348 32.3722C55.0288 34.2305 56.1263 35.6078 57.0931 37.1119C57.4508 37.688 57.8076 38.2645 58.1636 38.8416C58.4037 39.2188 58.4037 39.2188 58.6487 39.6036C59 40.2169 59 40.2169 59 40.7569C58.7592 40.7538 58.5183 40.7507 58.2702 40.7474C57.3656 40.7408 56.462 40.7441 55.5574 40.7536C55.1681 40.7558 54.7787 40.7542 54.3894 40.7486C51.5959 40.699 51.5959 40.699 49.2262 42.0689C49.0551 42.2568 48.8839 42.4447 48.7076 42.6382C47.123 44.3511 44.7229 45.2397 42.53 45.8869C42.3518 45.8869 42.1736 45.8869 41.99 45.8869C42.062 45.7087 42.1341 45.5305 42.2083 45.3469C42.6002 44.3602 42.9805 43.3696 43.3569 42.3769C43.4657 42.094 43.4657 42.094 43.5768 41.8053C43.6814 41.5286 43.6814 41.5286 43.7882 41.2463C43.8828 40.9983 43.8828 40.9983 43.9792 40.7453C45.4446 36.2118 44.3932 31.2069 42.3612 27.0544C39.8589 22.7831 35.7006 19.6014 30.92 18.3469C29.8199 18.1356 28.7848 18.0448 27.6652 18.0506C27.3659 18.0514 27.0666 18.0523 26.7582 18.0532C26.2956 18.0566 26.2956 18.0566 25.8237 18.0601C25.3518 18.0619 25.3518 18.0619 24.8703 18.0638C24.0968 18.0669 23.3234 18.0714 22.55 18.0769C24.4388 14.5435 27.9515 12.1217 31.7469 10.9388C32.2796 10.792 32.8138 10.6504 33.35 10.5169C33.516 10.4699 33.682 10.4228 33.8531 10.3743C37.1248 9.65207 41.0999 9.97789 44.15 11.3269Z" fill="#ACD1F9"/>
<path d="M21.74 18.3469C21.74 19.6606 21.0625 20.7443 20.5271 21.9276C18.869 25.8692 18.9701 30.9918 20.5145 34.9593C22.7219 39.94 26.1753 43.3638 31.2238 45.3469C32.7695 45.902 33.9987 46.1908 35.6492 46.1833C36.1556 46.182 36.1556 46.182 36.6723 46.1806C37.0238 46.1784 37.3753 46.1761 37.7375 46.1738C38.0932 46.1726 38.4489 46.1713 38.8154 46.1701C39.6936 46.1669 40.5718 46.1625 41.45 46.1569C39.1855 49.9668 35.8819 52.0884 31.73 53.4469C31.4944 53.5461 31.2587 53.6453 31.016 53.7475C29.6592 54.106 28.3345 54.0647 26.9375 54.0544C26.6584 54.0565 26.3792 54.0586 26.0916 54.0607C21.8423 54.05 18.416 52.7257 14.99 50.2069C14.795 49.9778 14.6 49.7487 14.399 49.5127C13.4256 48.6716 12.8913 48.6812 11.6182 48.666C11.3334 48.6599 11.3334 48.6599 11.0428 48.6536C10.4403 48.6421 9.83821 48.6397 9.23563 48.6375C8.82552 48.6313 8.41542 48.6244 8.00533 48.617C7.00356 48.6 6.00191 48.5913 5 48.5869C5.3281 47.5102 5.71133 46.6052 6.31098 45.6538C6.45663 45.4142 6.60229 45.1745 6.75236 44.9277C7.05734 44.4318 7.36601 43.9381 7.67838 43.4469C8.53041 42.0289 8.95341 41.1213 8.63004 39.479C7.70743 34.7747 8.78457 29.9571 11.21 25.9069C13.6646 22.3548 17.442 19.3185 21.74 18.3469Z" fill="#7FB9F7"/>
<path d="M31.9831 30.3955C32.7696 30.4184 33.0029 30.436 33.6369 30.9355C33.983 31.8124 33.905 32.3039 33.62 33.1968C33.0492 33.8083 32.6827 33.9782 31.865 34.1418C31.19 34.0068 31.19 34.0068 30.5487 33.433C30.11 32.6568 30.11 32.6568 30.1437 31.7961C30.5134 30.6079 30.7278 30.5151 31.9831 30.3955Z" fill="#FBF0FF"/>
<path d="M38.48 30.4969C39.0031 30.8006 39.0031 30.8006 39.29 31.3069C39.4354 32.2831 39.404 32.749 38.8681 33.585C38.21 34.0069 38.21 34.0069 37.2313 33.9731C36.32 33.7369 36.32 33.7369 35.78 33.1969C35.6326 31.5756 35.6326 31.5756 36.0669 30.7837C36.8923 30.3311 37.5595 30.3982 38.48 30.4969Z" fill="#FCF3FF"/>
<path d="M27.41 30.4969C27.9331 30.7838 27.9331 30.7838 28.22 31.3069C28.3381 32.2519 28.3381 32.2519 28.22 33.1969C27.6592 33.8408 27.3005 33.9788 26.465 34.125C25.5474 33.9645 25.2467 33.6822 24.71 32.9269C24.5876 32.0704 24.5669 31.5594 24.9969 30.8007C25.8189 30.3234 26.482 30.3975 27.41 30.4969Z" fill="#FCF3FF"/>
</svg>