<svg width="32" height="32" viewBox="0 0 32 32" fill="none" xmlns="http://www.w3.org/2000/svg">
<g opacity="0.5">
<path d="M0 16C0 7.16344 7.16344 0 16 0C24.8366 0 32 7.16344 32 16C32 24.8366 24.8366 32 16 32C7.16344 32 0 24.8366 0 16Z" fill="#308CEF"/>
<path d="M23.4302 14.9974L11.67 8.14616C11.4718 8.03266 11.2444 7.9834 11.0181 8.00494C10.7918 8.02647 10.5773 8.11778 10.403 8.26672C10.2288 8.41567 10.103 8.61521 10.0425 8.83883C9.98198 9.06245 9.98956 9.29957 10.0642 9.51869L12.2342 15.9827C12.234 15.9851 12.234 15.9875 12.2342 15.9898C12.2339 15.9922 12.2339 15.9946 12.2342 15.997L10.0642 22.4753C10.0044 22.6476 9.98602 22.8321 10.0105 23.0133C10.0351 23.1944 10.1018 23.3669 10.2051 23.5163C10.3085 23.6656 10.4454 23.7875 10.6044 23.8717C10.7635 23.9559 10.94 23.9999 11.1191 24C11.3135 23.9995 11.5045 23.9478 11.6735 23.85L23.4274 16.9873C23.6007 16.8881 23.7452 16.7437 23.8458 16.5688C23.9464 16.3939 23.9996 16.1948 24 15.992C24.0004 15.7891 23.9478 15.5898 23.8478 15.4146C23.7478 15.2393 23.6039 15.0943 23.4309 14.9946L23.4302 14.9974ZM11.1191 22.8568V22.8504L13.229 16.5693H17.2792C17.4277 16.5693 17.5702 16.5091 17.6752 16.4019C17.7802 16.2947 17.8392 16.1493 17.8392 15.9977C17.8392 15.8461 17.7802 15.7007 17.6752 15.5935C17.5702 15.4863 17.4277 15.4261 17.2792 15.4261H13.2346L11.1233 9.14716L11.1191 9.13858L22.8793 15.9856L11.1191 22.8568Z" fill="white"/>
</g>
</svg>
