<svg width="960" height="360" viewBox="0 0 960 360" fill="none" xmlns="http://www.w3.org/2000/svg">
  <rect width="960" height="360" rx="24" fill="#C7E9FF"/>
  <g transform="translate(40,40)">
    <rect width="72" height="72" rx="16" fill="#0B5ED7"/>
    <circle cx="36" cy="36" r="28" fill="#E8F2FF"/>
    <path d="M36 18C28.8203 18 23 23.8203 23 31C23 38.1797 28.8203 44 36 44C40.5234 44 44.5312 41.6094 46.7188 37.9531C47.6406 36.4219 45.8984 34.7109 44.2812 35.4609C42.0234 36.5 39.0703 37 36 37C31.0391 37 27 32.9609 27 28C27 23.0391 31.0391 19 36 19C40.9609 19 45 23.0391 45 28V30.0703C45 31.1797 45.8984 32 47 32C48.1016 32 49 31.1797 49 30.0703V28C49 23.8203 47.3672 20.0625 44.6719 17.3281C41.9375 14.6328 38.1797 13 34 13H33.9297C25.1094 13.3281 18 20.625 18 29.5C18 38.6406 25.8594 46.5 35 46.5C44.1406 46.5 52 38.6406 52 29.5V27.5C52 26.3984 51.1016 25.5 50 25.5C48.8984 25.5 48 26.3984 48 27.5V29.5C48 36.9219 42.4219 42.5 35 42.5C27.5781 42.5 22 36.9219 22 29.5C22 22.0781 27.5781 16.5 35 16.5H36C43.1797 16.5 49 22.3203 49 29.5V30.0703C49 31.1719 49.8984 32.0703 51 32.0703C52.1016 32.0703 53 31.1719 53 30.0703V29.5C53 21.0938 45.9062 14 37.5 14H36Z" fill="#0B5ED7"/>
  </g>
  <text x="140" y="100" fill="#0B1F33" font-family="Inter, -apple-system, BlinkMacSystemFont, 'Segoe UI', sans-serif" font-size="32" font-weight="700">
    Пример: восстановление сотрудницы «Летуаль»
  </text>
  <text x="140" y="138" fill="#0B1F33" font-family="Inter, -apple-system, BlinkMacSystemFont, 'Segoe UI', sans-serif" font-size="32" font-weight="700">
    после увольнения за больничный
  </text>
  <rect x="140" y="170" width="600" height="6" rx="3" fill="#0B5ED7"/>
  <rect x="140" y="200" width="520" height="24" rx="12" fill="#0B5ED7" fill-opacity="0.15"/>
  <rect x="140" y="232" width="420" height="24" rx="12" fill="#0B5ED7" fill-opacity="0.15"/>
  <rect x="140" y="264" width="360" height="24" rx="12" fill="#0B5ED7" fill-opacity="0.15"/>
</svg>
