<svg width="64" height="64" viewBox="0 0 64 64" fill="none" xmlns="http://www.w3.org/2000/svg">
<rect width="64" height="64" rx="12" fill="#308CEF"/>
<path d="M27.2217 9.00343C27.3866 9.00366 27.5514 9.00194 27.7163 9.00009C28.4542 8.99686 29.1386 9.08485 29.8578 9.24609C29.9554 9.26674 29.9554 9.26674 30.055 9.28781C32.9309 9.91696 35.5086 11.7406 37.1244 14.1961C37.3394 14.5348 37.5329 14.8838 37.7207 15.2381C37.7523 15.2972 37.7839 15.3563 37.8164 15.4171C37.9766 15.7254 38.0823 15.9991 38.1552 16.3405C38.2067 16.5144 38.2067 16.5144 38.3474 16.6378C38.6838 16.7651 39.0445 16.8052 39.3982 16.8594C41.5002 17.1907 43.3929 18.3679 44.934 19.7848C44.9922 19.8369 45.0503 19.8889 45.1101 19.9426C45.9894 20.7709 46.6498 21.7934 47.2028 22.8586C47.244 22.9353 47.2852 23.012 47.3277 23.091C48.2782 24.9077 48.4767 26.8366 48.4491 28.8536C48.4443 29.2503 48.4441 29.647 48.4429 30.0438C48.4412 30.5442 48.4382 31.0446 48.4306 31.545C48.4246 31.9538 48.4229 32.3624 48.424 32.7712C48.4237 32.9254 48.4218 33.0796 48.4182 33.2338C48.4007 34.0181 48.3973 34.6279 48.9453 35.2317C49.0581 35.3462 49.1731 35.4566 49.2918 35.565C49.4503 35.7153 49.5834 35.8836 49.7185 36.0548C49.9981 36.3987 50.2786 36.7417 50.5602 37.084C50.6042 37.1376 50.6483 37.1912 50.6937 37.2464C50.959 37.5683 51.227 37.8875 51.4979 38.2046C51.7671 38.5201 52.026 38.8419 52.28 39.1698C52.6024 39.5857 52.9419 39.9834 53.2891 40.3787C53.5861 40.7186 53.8662 41.0685 54.1416 41.4259C54.4471 41.8191 54.7724 42.1938 55.1022 42.5667C55.3996 42.9042 55.3996 42.9042 55.3996 42.9846C54.2929 42.9897 53.1867 42.9764 52.0802 42.9573C51.7994 42.9525 51.5186 42.9482 51.2378 42.9438C50.3059 42.9285 49.3767 42.9066 48.4469 42.8382C48.4515 42.9763 48.4515 42.9763 48.4561 43.1172C48.4429 46.2416 47.1016 49.1879 44.934 51.4009C44.8786 51.46 44.8231 51.5192 44.7659 51.5801C43.1564 53.2631 40.9066 54.2989 38.6584 54.7949C38.5835 54.8119 38.5835 54.8119 38.5071 54.8294C37.5073 55.0322 36.4524 54.999 35.4369 54.9965C35.2448 54.9961 35.0526 54.9965 34.8605 54.997C32.0943 54.9985 29.8029 54.0875 27.8224 52.151C26.5069 50.7698 25.7553 49.0086 25.3935 47.1561C25.3068 47.1334 25.3068 47.1334 25.2183 47.1101C23.0746 46.5246 21.2228 45.5559 19.6119 44.0092C19.5141 43.917 19.5141 43.917 19.4143 43.8231C17.7784 42.2418 16.6361 40.0872 16.1722 37.8616C16.143 37.7271 16.143 37.7272 16.1133 37.59C15.9768 36.9389 15.8752 36.3103 15.878 35.6446C15.8782 35.5798 15.8784 35.5149 15.8786 35.4481C15.8789 35.3993 15.8792 35.3504 15.8794 35.3001C15.8114 35.3023 15.7435 35.3045 15.6734 35.3068C13.4488 35.3777 11.2256 35.3817 9 35.3733C9.06862 35.281 9.13737 35.1887 9.20616 35.0965C9.24442 35.0451 9.28269 34.9938 9.32212 34.9408C9.49544 34.7141 9.68136 34.4995 9.86908 34.2846C10.1717 33.9351 10.4658 33.5811 10.7524 33.2183C10.9315 32.9957 11.1157 32.7778 11.3008 32.5602C11.6614 32.1361 12.0154 31.7069 12.3665 31.2749C12.7129 30.8488 13.0621 30.4256 13.4186 30.0079C13.6954 29.6832 13.9624 29.3526 14.2236 29.0153C14.5579 28.5838 14.9095 28.1698 15.27 27.76C15.3081 27.7167 15.3462 27.6734 15.3854 27.6288C15.4358 27.5719 15.4358 27.5719 15.4872 27.5138C15.52 27.475 15.5529 27.4361 15.5867 27.3961C15.6244 27.3594 15.6621 27.3227 15.7009 27.2849C15.8626 27.0061 15.8366 26.7395 15.8344 26.4227C15.8348 26.3537 15.8352 26.2848 15.8356 26.2137C15.8363 26.0638 15.8365 25.9139 15.8363 25.764C15.836 25.5253 15.837 25.2866 15.8384 25.0479C15.8411 24.5392 15.8421 24.0305 15.8428 23.5218C15.8437 22.9361 15.8453 22.3505 15.8487 21.7648C15.8497 21.5323 15.8494 21.2998 15.849 21.0672C15.8581 17.6651 17.0061 14.6337 19.4237 12.2152C21.0336 10.6364 23.0527 9.6454 25.2472 9.1729C25.3107 9.15917 25.3743 9.14544 25.4398 9.13129C26.0331 9.01746 26.6199 9.00168 27.2217 9.00343Z" fill="#ACD1F9"/>
<path d="M27.2217 9.00343C27.3866 9.00366 27.5514 9.00194 27.7163 9.00009C28.4542 8.99686 29.1386 9.08485 29.8578 9.24609C29.9554 9.26674 29.9554 9.26674 30.055 9.28781C32.9315 9.91709 35.5069 11.7405 37.1241 14.1952C38.2742 16.0062 38.2742 16.0062 38.2742 16.6378C38.2135 16.6367 38.1528 16.6355 38.0903 16.6343C34.5905 16.577 31.4514 17.3843 28.8717 19.8633C27.1777 21.5305 26.0265 23.6737 25.5902 26.0147C25.5727 26.1074 25.5727 26.1074 25.5549 26.2021C25.3468 27.4108 25.3833 28.6463 25.3852 29.8679C25.3852 30.0563 25.3852 30.2447 25.3852 30.433C25.3852 30.8363 25.3854 31.2396 25.3858 31.6429C25.3864 32.2259 25.3866 32.809 25.3867 33.392C25.3868 34.3383 25.3873 35.2846 25.388 36.2309C25.3887 37.1493 25.3892 38.0678 25.3895 38.9863C25.3895 39.043 25.3896 39.0998 25.3896 39.1582C25.3897 39.443 25.3898 39.7277 25.3899 40.0124C25.3906 42.3693 25.3919 44.7261 25.3935 47.0829C25.2548 47.0613 25.1162 47.0392 24.9776 47.0169C24.9004 47.0046 24.8232 46.9924 24.7436 46.9797C24.4088 46.9164 24.1 46.809 23.7835 46.685C23.7182 46.6596 23.6529 46.6342 23.5856 46.608C22.0899 46.0068 20.7729 45.124 19.6119 44.0092C19.5141 43.917 19.5141 43.917 19.4143 43.8231C17.7784 42.2418 16.6361 40.0872 16.1722 37.8616C16.143 37.7271 16.143 37.7272 16.1133 37.59C15.9768 36.9389 15.8752 36.3103 15.878 35.6446C15.8782 35.5797 15.8784 35.5149 15.8786 35.4481C15.8789 35.3993 15.8792 35.3504 15.8794 35.3001C15.8114 35.3023 15.7435 35.3045 15.6734 35.3068C13.4488 35.3777 11.2256 35.3817 9 35.3733C9.06862 35.281 9.13737 35.1887 9.20616 35.0965C9.24442 35.0451 9.28269 34.9938 9.32212 34.9408C9.49544 34.7141 9.68136 34.4995 9.86908 34.2846C10.1717 33.9351 10.4658 33.5811 10.7524 33.2183C10.9315 32.9957 11.1157 32.7778 11.3008 32.5602C11.6614 32.1361 12.0154 31.7069 12.3665 31.2749C12.7129 30.8488 13.0621 30.4256 13.4186 30.0079C13.6954 29.6832 13.9624 29.3526 14.2236 29.0153C14.5579 28.5838 14.9095 28.1698 15.27 27.76C15.3081 27.7167 15.3462 27.6734 15.3854 27.6288C15.4358 27.5719 15.4358 27.5719 15.4872 27.5138C15.52 27.475 15.5529 27.4361 15.5867 27.3961C15.6244 27.3594 15.6621 27.3227 15.7009 27.2849C15.8626 27.0061 15.8366 26.7395 15.8344 26.4227C15.8348 26.3537 15.8352 26.2848 15.8356 26.2137C15.8363 26.0638 15.8365 25.9139 15.8363 25.764C15.836 25.5253 15.837 25.2866 15.8384 25.0479C15.8411 24.5392 15.8421 24.0305 15.8428 23.5218C15.8437 22.9361 15.8453 22.3505 15.8487 21.7648C15.8497 21.5323 15.8494 21.2998 15.849 21.0672C15.8581 17.6651 17.0061 14.6337 19.4237 12.2152C21.0336 10.6364 23.0527 9.6454 25.2472 9.1729C25.3107 9.15917 25.3743 9.14544 25.4398 9.13129C26.0331 9.01746 26.6199 9.00168 27.2217 9.00343Z" fill="#7FB9F7"/>
<path d="M38.3474 16.6382C38.4185 16.8971 38.4883 17.1564 38.5578 17.4158C38.5874 17.5233 38.5874 17.5233 38.6175 17.633C38.9422 18.8525 38.9547 20.0258 38.9541 21.2799C38.9546 21.4753 38.9551 21.6706 38.9556 21.8659C38.9568 22.3395 38.9572 22.8131 38.9573 23.2867C38.9574 23.6722 38.9577 24.0577 38.9581 24.4432C38.9594 25.5394 38.9601 26.6356 38.96 27.7318C38.96 27.7908 38.96 27.8497 38.96 27.9104C38.96 27.9694 38.96 28.0284 38.96 28.0892C38.9599 29.0446 38.9613 30 38.9634 30.9554C38.9655 31.9396 38.9665 32.9238 38.9664 33.9079C38.9663 34.4592 38.9667 35.0105 38.9683 35.5617C38.9696 36.0312 38.9699 36.5006 38.9689 36.9701C38.9685 37.2089 38.9686 37.4477 38.9697 37.6866C38.9817 40.4047 38.2549 42.7938 36.3165 44.7597C34.949 46.1065 33.2158 46.9798 31.3216 47.3029C31.2489 47.3155 31.1762 47.3281 31.1013 47.341C30.7361 47.3923 30.3702 47.3894 30.002 47.3909C29.9238 47.3913 29.8457 47.3918 29.7652 47.3922C29.5996 47.3929 29.434 47.3934 29.2684 47.3936C29.0211 47.3943 28.7738 47.3966 28.5265 47.3989C27.4652 47.4039 26.4417 47.3229 25.3936 47.1565C25.3101 46.2048 25.3095 45.2561 25.3097 44.3014C25.3095 44.1259 25.3093 43.9504 25.309 43.7748C25.3084 43.3499 25.3082 42.9249 25.3081 42.4999C25.3081 42.1537 25.308 41.8076 25.3077 41.4615C25.3071 40.4762 25.3067 39.4908 25.3068 38.5055C25.3068 38.4526 25.3068 38.3997 25.3068 38.3451C25.3068 38.2921 25.3068 38.2391 25.3068 38.1845C25.3068 37.327 25.3061 36.4695 25.3051 35.612C25.3041 34.7276 25.3036 33.8433 25.3036 32.9589C25.3036 32.464 25.3034 31.969 25.3027 31.4741C25.3019 31.0079 25.3019 30.5418 25.3025 30.0756C25.3026 29.9059 25.3024 29.7362 25.3019 29.5665C25.2999 28.7338 25.3145 27.9075 25.3847 27.0775C25.3902 27.0112 25.3958 26.9449 25.4015 26.8765C25.6382 24.3635 26.7596 21.9928 28.5107 20.185C28.6132 20.0785 28.7134 19.9702 28.8135 19.8615C31.117 17.4083 35.0169 16.0468 38.3474 16.6382Z" fill="#CCE3FC"/>
</svg>
