<svg width="64" height="64" viewBox="0 0 64 64" fill="none" xmlns="http://www.w3.org/2000/svg">
<rect width="64" height="64" rx="12" fill="#308CEF"/>
<path d="M12.8159 9.00408C12.9861 9.00342 13.1563 9.00244 13.3265 9.00118C13.7904 8.99865 14.2541 9.00058 14.7179 9.00329C15.2196 9.00543 15.7213 9.00338 16.223 9.00188C17.2042 8.9996 18.1853 9.00117 19.1665 9.0041C20.3099 9.00739 21.4532 9.00699 22.5966 9.00648C24.6369 9.00571 26.6771 9.00851 28.7173 9.01323C30.6959 9.01781 32.6744 9.01951 34.6529 9.01817C36.8094 9.01671 38.9659 9.01675 41.1224 9.01949C41.3524 9.01978 41.5824 9.02007 41.8124 9.02036C41.9255 9.0205 42.0387 9.02065 42.1553 9.0208C42.9518 9.02173 43.7484 9.02164 44.5449 9.02118C45.5157 9.02067 46.4864 9.02193 47.4571 9.02542C47.9522 9.02716 48.4472 9.02814 48.9423 9.02704C49.3958 9.02606 49.8493 9.02731 50.3028 9.03032C50.5438 9.03136 50.7848 9.03005 51.0258 9.02864C51.8987 9.03711 52.5599 9.13336 53.3186 9.5754C53.4365 9.64363 53.4365 9.64363 53.5568 9.71324C54.4478 10.2567 54.9731 11.2375 55.2437 12.2224C55.2929 12.652 55.292 13.0773 55.2887 13.5093C55.2892 13.6361 55.2897 13.7629 55.2902 13.8936C55.2913 14.3171 55.2899 14.7405 55.2885 15.164C55.2888 15.4682 55.2892 15.7724 55.2898 16.0766C55.2908 16.8163 55.2902 17.5559 55.2887 18.2956C55.2871 19.1576 55.2873 20.0197 55.2875 20.8818C55.2879 22.4205 55.2865 23.9593 55.2842 25.498C55.2819 26.9896 55.281 28.4812 55.2817 29.9728C55.2824 31.5986 55.2824 33.2244 55.281 34.8501C55.2809 35.0237 55.2807 35.1972 55.2806 35.3707C55.2805 35.4987 55.2805 35.4987 55.2804 35.6294C55.2799 36.2297 55.28 36.83 55.2802 37.4302C55.2805 38.239 55.2794 39.0477 55.2775 39.8564C55.277 40.153 55.2769 40.4495 55.2773 40.7461C55.2776 41.1514 55.2765 41.5566 55.2751 41.9619C55.2755 42.0789 55.276 42.1959 55.2765 42.3164C55.2674 43.7349 54.9636 44.744 53.9423 45.7696C52.8027 46.7142 51.4312 46.8234 50.008 46.8003C49.8456 46.7994 49.6831 46.7987 49.5206 46.7982C49.0981 46.7964 48.6756 46.7917 48.2531 46.7864C47.82 46.7814 47.3868 46.7792 46.9536 46.7768C46.1074 46.7717 45.2613 46.7635 44.4152 46.7533C44.4163 46.8391 44.4173 46.925 44.4184 47.0134C44.4281 47.8241 44.4354 48.6348 44.4401 49.4455C44.4426 49.8623 44.446 50.279 44.4515 50.6957C44.4578 51.1754 44.4601 51.655 44.4622 52.1347C44.4647 52.2836 44.4672 52.4325 44.4697 52.5859C44.4699 53.3655 44.4685 53.8656 43.9339 54.4536C43.8496 54.5479 43.7652 54.6422 43.6783 54.7393C43.1587 55.033 42.7113 55.0475 42.1292 54.9349C41.7523 54.7573 41.4736 54.4916 41.1666 54.213C41.033 54.0975 40.899 53.9824 40.7648 53.8675C40.4534 53.6004 40.1435 53.3316 39.8347 53.0615C39.3988 52.6804 38.9599 52.303 38.5197 51.9269C37.9362 51.4278 37.3549 50.9263 36.7751 50.423C36.1898 49.9151 35.6036 49.4084 35.0154 48.904C34.9552 48.8523 34.8949 48.8005 34.8328 48.7472C34.7057 48.6383 34.5774 48.5308 34.4481 48.4244C34.1883 48.1971 34.1883 48.1971 33.874 47.875C33.0067 47.0166 32.3433 46.7063 31.1246 46.7053C30.936 46.7095 30.7474 46.7137 30.5587 46.7181C30.3558 46.7178 30.1528 46.717 29.9499 46.7157C29.4031 46.7136 28.8567 46.7196 28.31 46.727C27.7353 46.7333 27.1607 46.7317 26.586 46.7309C25.4981 46.7305 24.4104 46.7365 23.3226 46.7451C21.3756 46.7603 19.4285 46.7634 17.4814 46.7658C16.7993 46.7669 16.1172 46.7704 15.4351 46.7761C15.0097 46.7793 14.5842 46.7812 14.1587 46.7827C13.9628 46.7838 13.7669 46.7855 13.5709 46.7878C12.0386 46.8061 10.5726 46.7794 9.40298 45.6705C9.32745 45.6011 9.25192 45.5318 9.1741 45.4604C7.78614 44.0489 8.01059 42.1144 8.01722 40.2827C8.01657 39.98 8.01571 39.6773 8.01467 39.3746C8.01271 38.6404 8.01298 37.9062 8.01438 37.172C8.01547 36.575 8.01562 35.9779 8.01509 35.3808C8.01502 35.2956 8.01495 35.2104 8.01487 35.1225C8.01472 34.9493 8.01456 34.7761 8.0144 34.6029C8.01303 32.982 8.0146 31.3611 8.01719 29.7401C8.01934 28.3515 8.01897 26.9629 8.01675 25.5743C8.01417 23.9586 8.01316 22.343 8.01464 20.7274C8.01479 20.5549 8.01494 20.3824 8.01509 20.2099C8.01517 20.125 8.01524 20.0401 8.01532 19.9527C8.01573 19.3568 8.01504 18.7609 8.0139 18.165C8.0124 17.362 8.01348 16.5591 8.01626 15.7561C8.01689 15.4619 8.01671 15.1677 8.01565 14.8736C8.01433 14.471 8.01599 14.0686 8.01838 13.666C8.01677 13.4928 8.01677 13.4928 8.01513 13.3161C8.02743 12.243 8.30472 11.1885 9.04203 10.38C9.16114 10.243 9.16114 10.243 9.28266 10.1032C10.3931 9.21975 11.4204 8.98812 12.8159 9.00408Z" fill="white"/>
<path d="M45.6385 24.4888C46.2462 24.8394 46.6842 25.2297 47.0621 25.8182C47.1138 25.8968 47.1654 25.9754 47.2186 26.0565C47.7142 26.964 47.6836 28.0616 47.4682 29.0512C47.1485 29.9662 46.5047 30.7727 45.6785 31.2851C44.6616 31.739 43.5452 31.9524 42.4671 31.5816C41.1223 30.9505 40.4329 30.1472 39.9334 28.7735C39.7166 27.7439 39.8309 26.8781 40.3244 25.9385C41.6328 24.1401 43.5895 23.4013 45.6385 24.4888Z" fill="#308CEF"/>
<path d="M33.4165 24.3203C34.4935 24.9669 35.2277 25.8162 35.5841 27.0265C35.7817 27.9971 35.576 28.9049 35.1508 29.7886C34.5253 30.7288 33.7074 31.3804 32.6241 31.7137C31.6105 31.856 30.7318 31.7757 29.8569 31.2325C29.773 31.1814 29.689 31.1304 29.6026 31.0778C28.7452 30.4982 28.2047 29.7015 27.9318 28.7058C27.786 27.4694 27.9278 26.4827 28.6537 25.4572C29.8514 24.0969 31.7252 23.5353 33.4165 24.3203Z" fill="#308CEF"/>
<path d="M22.0062 24.6902C22.5716 25.0928 22.9074 25.5768 23.2394 26.1791C23.3511 26.3764 23.3511 26.3764 23.465 26.5777C23.8072 27.6992 23.6312 28.7502 23.1191 29.7886C22.5701 30.7786 21.6545 31.3597 20.5925 31.7137C19.2277 31.8909 18.247 31.5568 17.1465 30.7624C16.3441 30.0504 15.9694 29.0724 15.87 28.029C15.8341 27.2204 15.9788 26.6374 16.3814 25.9385C16.4222 25.8644 16.463 25.7902 16.505 25.7138C16.9811 24.9514 17.7449 24.47 18.5396 24.0811C19.7846 23.8524 20.9209 24.0368 22.0062 24.6902Z" fill="#308CEF"/>
</svg>
